<svg xmlns="http://www.w3.org/2000/svg" width="800" height="587" viewBox="8 6 240 176"><defs><linearGradient id="a" x1="0" x2="1" y1="0" y2="0"><stop offset="0" stop-color="#60a5fa"/><stop offset="1" stop-color="#818cf8"/></linearGradient></defs><clipPath id="b"><path d="m13.5 57 96.9-45L240 37.5l-81.9 48.3Z"/></clipPath><g fill="none" stroke="url(#a)" stroke-linecap="round" stroke-linejoin="round" clip-path="url(#b)"><path stroke-opacity=".8" stroke-width=".7" d="m65.7 33.6 1.6-.8 2.7-1.4 2.7-1.4 2.7-1.4 2.7-1.4 2.8-1.4 2.7-1.4 2.7-1.4 2.7-1.5 2.7-1.4 2.7-1.5 2.6-1.5 2.7-1.5 2.6-1.5 2.6-1.5 2.6-1.6 2.6-1.5 2.6-1.6 2.7-1.5 2.6-1.5 2.7-1.6 2.6-1.5L126 .3l2.7-1.5 2.6-1.5 2.6-1.5 2.6-1.5 2.6-1.5 2.5-1.5 2.6-1.5 2.5-1.5 2.6-1.5 2.5-1.5 2.6-1.5 2.6-1.5 2.7-1.5 2.6-1.5 2.7-1.5 2.7-1.4 2.7-1.5 1.5-.8h.2"/><path stroke-opacity=".6" stroke-width="1.2" d="m34.7 63 1.6-1 2.5-1.5 2.6-1.5 2.5-1.5 2.6-1.4 2.6-1.5 2.6-1.4 2.6-1.4 2.7-1.4 2.6-1.4q1.4-.6 2.7-1.4l2.7-1.3 2.8-1.4 2.7-1.4 2.7-1.5 2.8-1.4 2.7-1.4 2.7-1.5 2.7-1.5 2.6-1.4 2.7-1.5 2.6-1.5 2.6-1.5 2.6-1.5 2.5-1.5 2.6-1.5 2.6-1.5 2.6-1.4 2.6-1.5 2.6-1.5 2.6-1.5 2.6-1.4 2.6-1.5 2.7-1.5 2.6-1.5 1.5-.8.1-.1"/><path stroke-opacity=".6" stroke-width=".8" d="m55.3 63.5 2.3-1.5 2.6-1.6 2.6-1.6 2.6-1.6 2.5-1.6 2.6-1.5 2.5-1.5 2.5-1.5 2.6-1.5 2.5-1.5 2.6-1.4 2.6-1.4 2.6-1.4 2.7-1.4 2.7-1.4 2.7-1.4 2.8-1.3L102 37l2.7-1.4 2.8-1.5 2.7-1.4 2.7-1.5 2.7-1.4 2.7-1.5 2.7-1.6 2.6-1.5 2.7-1.5 2.6-1.6 2.6-1.5 2.7-1.5 2.7-1.6 2.7-1.5 2.7-1.5L145 13l2.7-1.5 2.7-1.5 2.8-1.5 2.7-1.5 2.7-1.5 2.7-1.6 2.6-1.5 2.7-1.5 2.6-1.5 2.5-1.6 2.6-1.5 2.5-1.6 1.8-1 .4-.4"/><path stroke-opacity=".9" stroke-width="1.1" d="m51 81 1.8-1.2 2.6-1.6 2.5-1.6 2.6-1.6 2.6-1.5 2.7-1.6 2.7-1.5 2.7-1.6 2.8-1.5 2.7-1.5 2.8-1.5 2.7-1.5 2.7-1.5 2.6-1.5 2.7-1.6 2.7-1.5 2.7-1.5 2.7-1.5 2.8-1.5 2.8-1.4 2.8-1.4 2.7-1.5 2.8-1.4 2.6-1.4 2.7-1.4 1.6-.9.3-.1"/><path stroke-opacity=".7" stroke-width=".9" d="m65.6 88.9 2-1.2 2.7-1.5 2.5-1.5 2.6-1.5 2.6-1.5 2.6-1.5 2.5-1.5 2.7-1.5 2.6-1.5 2.6-1.4 2.6-1.5 2.7-1.4 2.6-1.5 2.7-1.4 2.7-1.4 2.6-1.5 2.6-1.4 2.6-1.4 2.6-1.4 2.6-1.5 2.6-1.4 2.6-1.5 2.6-1.5 2.6-1.5 2.6-1.5 2.6-1.6 2.6-1.5 2.7-1.6 2.7-1.6 2.7-1.6 2.8-1.6 2.7-1.6 2.8-1.6 2.8-1.6 2.7-1.5L160 35l2.7-1.5 2.7-1.5 2.7-1.5 2.7-1.5 1.7-.9.4-.2"/><path stroke-opacity=".8" stroke-width=".7" d="m71.2 96.2 1.8-1 2.7-1.4 2.7-1.4L81 91l2.7-1.4 2.6-1.4 2.6-1.4 2.7-1.4 2.6-1.4 2.7-1.4 2.7-1.5 2.7-1.5 2.8-1.5 2.7-1.5 2.7-1.5 2.7-1.6L116 72l2.6-1.6 2.6-1.5 2.6-1.5 2.5-1.5 2.6-1.5 2.5-1.5 2.6-1.5 2.5-1.5 2.6-1.5 2.6-1.5 2.7-1.5 2.6-1.6 2.7-1.5 2.6-1.5 2.7-1.6 2.6-1.5 2.6-1.5 2.6-1.5 2.6-1.4 2.6-1.4 2.6-1.5 2.6-1.4 2.7-1.3 2.7-1.4 2.7-1.4 2.7-1.4 2.8-1.4 1.6-.8.2-.2"/><path stroke-opacity=".9" stroke-width=".9" d="m83 102 1.6-1 2.6-1.4 2.5-1.5 2.6-1.6 2.5-1.5 2.6-1.6L100 92l2.6-1.6 2.7-1.5 2.6-1.6 2.6-1.5 2.7-1.5 2.6-1.5 2.6-1.5 2.5-1.5 2.6-1.5 2.6-1.5 2.5-1.4 2.6-1.5 2.6-1.5 2.5-1.4 2.6-1.5 2.7-1.5 2.6-1.5L147 65l2.7-1.5 2.7-1.5 2.7-1.5 2.8-1.5 2.7-1.4 2.7-1.5 1.5-.8h.1"/><path stroke-opacity=".6" stroke-width=".6" d="m74.5 118.2 2.2-1.3 2.6-1.6 2.7-1.5 2.7-1.6 2.7-1.6 2.7-1.5 2.7-1.6 2.6-1.5 2.7-1.6 2.6-1.5 2.6-1.5 2.6-1.5 2.6-1.5 2.6-1.4 2.6-1.5 2.5-1.4 2.6-1.4 2.5-1.4 2.6-1.4 2.6-1.4 2.6-1.4 2.7-1.4 2.6-1.4 2.7-1.4 2.7-1.5 2.7-1.4 2.8-1.5L148 77l2.8-1.5 2.7-1.5 2.7-1.5 2.8-1.6 2.7-1.6 2.7-1.5 2.7-1.6 2.6-1.6 2.7-1.6 2.7-1.5 2.6-1.6 2.7-1.6 2.6-1.5 2.7-1.6 2.7-1.5 2.7-1.5 2.7-1.5 2.7-1.5 1.8-1 .4-.3"/><path stroke-opacity=".7" stroke-width=".8" d="m134.9 94.9 2-1.1 2.7-1.5 2.7-1.4 2.7-1.4 2.7-1.4 2.7-1.4 2.7-1.5 2.7-1.4 2.6-1.5 2.7-1.4 2.6-1.5 2.6-1.5 2.7-1.5 2.6-1.6 2.7-1.5 2.6-1.6 2.7-1.5 2.7-1.5L185 67l2.6-1.5 2.7-1.5 2.6-1.5 2.7-1.5 2.6-1.5 2.6-1.5 2.5-1.5 2.6-1.5 2.6-1.5L211 52l2.6-1.5 2.6-1.4 2.7-1.5 2.6-1.5 2.7-1.5 2.7-1.5 2.6-1.5 2.7-1.5 2.7-1.4 2.7-1.5 1.6-.9.4-.2"/></g><clipPath id="d"><path d="m13.5 57 96.9-45L240 37.5l-81.9 48.3Z"/></clipPath><g fill="none" stroke="url(#a)" stroke-linecap="round" stroke-linejoin="round" clip-path="url(#d)"><path stroke-opacity=".8" stroke-width=".8" d="m122.9 3.3 1.7-1 2.7-1.5L130-.7l2.6-1.5 2.5-1.5 2.5-1.4 2.5-1.4 2.6-1.4 2.5-1.4 2.7-1.4 2.7-1.4 2.7-1.5L156-15l2.7-1.6q1.4-.7 2.7-1.6l2.7-1.6 2.6-1.6 2.7-1.6 2.6-1.6 2.7-1.6 2.8-1.5 2.7-1.4 2.8-1.5 2.7-1.4 2.7-1.4 2.6-1.4 1.5-.8.2-.1"/><path stroke-opacity=".8" stroke-width=".9" d="m49.2 57 2-1.3 2.7-1.6 2.5-1.5L59 51l2.6-1.5 2.7-1.4 2.7-1.4 2.7-1.4 2.8-1.4 2.8-1.5L78 41l2.7-1.6 2.7-1.5 2.7-1.6 2.7-1.6 2.8-1.6 2.7-1.6 2.8-1.6 2.8-1.6 2.8-1.5 2.7-1.5 2.7-1.5 2.6-1.5 2.6-1.6 2.5-1.5 2.7-1.5 1.7-1 .3-.2"/><path stroke-opacity=".8" stroke-width=".6" d="m100.6 41.9 2-1.1 2.6-1.5 2.6-1.4 2.8-1.4 2.8-1.4 2.8-1.4 2.8-1.4 2.7-1.5 2.6-1.4 2.6-1.5 2.5-1.4L132 25l2.6-1.4 2.6-1.4 2.6-1.4 2.7-1.4 2.6-1.5 2.6-1.5 2.5-1.5 2.4-1.6 2.5-1.6 2.5-1.7 2.5-1.6 2.6-1.6 2.7-1.6 2.8-1.5 2.7-1.4 2.8-1.4 2.7-1.3 2.7-1.3 2.6-1.3 2.6-1.4 2.6-1.4 2.7-1.4 2.7-1.5 2.6-1.5 2.8-1.6 2.6-1.5 2.7-1.5 2.5-1.5 1.6-1h.2"/><path stroke-opacity=".7" stroke-width=".5" d="m122 44 2.3-1.4 2.6-1.6 2.7-1.5 2.7-1.4 2.6-1.4 2.7-1.3L140 34l2.6-1.3 2.6-1.3L148 30l2.8-1.5 2.8-1.5 2.9-1.5 2.8-1.6 2.8-1.6 2.7-1.5 2.6-1.5 2.6-1.5 2.5-1.6 2.5-1.5 2.5-1.5 1.8-1 .4-.3"/><path stroke-opacity=".7" stroke-width=".6" d="m90.7 74.8 2-1.2 2.6-1.6 2.6-1.5 2.6-1.5 2.6-1.4 2.7-1.5 2.7-1.5 2.8-1.4 2.7-1.5 2.7-1.5 2.8-1.4 2.7-1.5 2.6-1.5 2.6-1.5 2.7-1.4 2.6-1.5 2.6-1.5 2.6-1.4 2.6-1.5 2.7-1.4 2.6-1.4 2.7-1.5 2.6-1.4 2.6-1.5 2.7-1.5 2.5-1.5 2.6-1.6 2.6-1.6 2.5-1.5 2.6-1.6 2.5-1.6 2.7-1.6 2.6-1.5 2.7-1.5 2.7-1.5 2.7-1.5 2.7-1.4 2.7-1.4 2.7-1.4 2.7-1.5 1.7-.9.4-.2"/><path stroke-opacity=".7" stroke-width=".6" d="m55.3 110 2.1-1.2 2.7-1.5 2.7-1.5 2.8-1.5 2.7-1.6 2.8-1.7 2.9-1.7 2.8-1.7 2.8-1.7 2.8-1.6 2.7-1.6 2.6-1.6 2.6-1.5 2.5-1.4 2.5-1.4 2.6-1.4 2.6-1.4 2.7-1.3 2.7-1.4 2.7-1.5 2.8-1.5 2.7-1.5 2.8-1.5 1.7-1 .4-.3"/><path stroke-opacity=".6" stroke-width=".5" d="m81.5 107.6 1.8-1.1 2.6-1.7 2.6-1.6 2.5-1.6 2.6-1.6 2.6-1.6 2.5-1.6 2.6-1.6 2.6-1.6 2.6-1.5 2.6-1.6 2.7-1.5 2.6-1.5 2.7-1.5 2.7-1.5 2.7-1.4 2.7-1.4 2.8-1.5 2.7-1.4 2.7-1.4L136 76l2.7-1.5 2.6-1.4 2.7-1.4 2.7-1.5 2.6-1.5 2.7-1.5 2.7-1.4 2.6-1.5 2.7-1.5 2.7-1.6 2.7-1.5 2.7-1.5 2.8-1.5 1.6-1h.3"/><path stroke-opacity=".6" stroke-width=".7" d="m126.9 98 1.8-1 2.6-1.5 2.5-1.5 2.6-1.6 2.6-1.6 2.7-1.5 2.6-1.6L147 86l2.6-1.5 2.6-1.5 2.5-1.5 2.5-1.5 2.6-1.5 2.6-1.6 2.6-1.5 2.8-1.5 2.8-1.6 2.8-1.5 2.8-1.5L179 68l2.7-1.4 2.6-1.3 2.6-1.3 2.6-1.4 2.6-1.3 2.7-1.5 2.7-1.4 2.7-1.6 2.6-1.6 2.7-1.6 2.6-1.7 1.5-1 .3-.2"/></g><clipPath id="e"><path d="M158.1 85.8 240 37.5l1.5 99-84 39Z"/></clipPath><g fill="none" stroke="url(#a)" stroke-linecap="round" stroke-linejoin="round" clip-path="url(#e)"><path stroke-opacity=".7" stroke-width=".8" d="m137.6 97.2 2.3-1.6 2.6-1.8q1.3-1 2.7-1.8l2.7-1.7 2.7-1.6 2.5-1.5 2.5-1.4 2.5-1.3 2.4-1.2 2.4-1.1 2.4-1.2 2.6-1.2 2.8-1.2 2.9-1.4 3-1.5 3-1.6 3-1.6 2.9-1.7 2.8-1.7 2.8-1.7 2.6-1.6 2.6-1.6 2.6-1.6 2.7-1.5 2.7-1.6L207 58l2.8-1.6 2.8-1.5 2.7-1.7 2.6-1.6 2.5-1.6 2.4-1.6 2.3-1.5 2.3-1.5 2.4-1.4 1.6-.9.5-.2"/><path stroke-opacity=".9" stroke-width=".7" d="m129 104.5 1.8-1 2.7-1.5 2.7-1.5L139 99l2.5-1.4 2.4-1.5 2.5-1.4 2.4-1.4 2.6-1.4 2.6-1.4 2.7-1.4 2.8-1.5 2.8-1.6 2.9-1.6 2.8-1.7q1.3-1 2.7-1.8l2.7-1.8 2.7-1.7 2.7-1.7 2.7-1.6 2.8-1.5 2.9-1.4 2.9-1.4 2.8-1.3 2.8-1.3 2.7-1.3 2.6-1.4 2.5-1.4 2.5-1.5 2.4-1.6 1.5-.9h.2"/><path stroke-opacity=".7" stroke-width=".7" d="m124.2 110.6 2-1.6q1.1-1 2.4-1.9 1.2-1 2.5-1.8l2.7-1.7 2.7-1.6 2.7-1.5 2.6-1.3 2.5-1.2 2.5-1.2 2.5-1.1 2.5-1.2 2.6-1.3L157 92l2.9-1.5 3-1.5 3-1.5 3-1.6 3-1.5 2.8-1.6 2.7-1.5 2.5-1.5 2.5-1.5 2.4-1.5 2.5-1.6 2.5-1.6 2.7-1.7 2.6-1.7 2.7-1.8 2.6-1.7L203 65l2.4-1.6 2.4-1.5 2.3-1.3 2.4-1.2 1.6-.8.5-.2"/><path stroke-opacity=".8" stroke-width=".8" d="m145.4 101.3 1.7-1 2.6-1.5 2.6-1.5 2.4-1.5 2.5-1.4 2.5-1.5 2.6-1.4 2.8-1.6 3-1.6 3-1.7q1.4-1 3-1.8 1.4-1 2.9-1.8l2.8-1.8 2.7-1.7L185 78l2.6-1.4 2.6-1.3q1.3-.7 2.7-1.2l2.7-1.2 2.8-1.2 2.7-1.3 2.6-1.4 2.5-1.5 2.4-1.5 2.3-1.7 2.4-1.7L216 61l2.6-1.7 2.8-1.5 3-1.6 2.8-1.6 3-1.5 2.8-1.6 2.7-1.6 2.7-1.6 1.5-1h.2"/><path stroke-opacity=".6" stroke-width=".4" d="m125.4 113.9 2.5-1.3 2.9-1.5 2.8-1.5 2.8-1.4 2.8-1.5 2.7-1.4 2.7-1.4 2.6-1.5 2.6-1.4 2.5-1.5L155 98l2.6-1.5 2.7-1.5 2.7-1.5 2.7-1.4 2.7-1.5 2.8-1.4 2.7-1.4 2.8-1.3 2.6-1.3 2.6-1.3 2.6-1.3 2.5-1.3 2.4-1.3 2.3-1.3 2.4-1.3 2.3-1.4 2.3-1.4L201 73l2.4-1.6L206 70l2.6-1.6 2.6-1.7q1.3-1 2.7-1.8l2.7-1.8 2.8-1.7 2.8-1.8 2.8-1.7 2.7-1.7 2.8-1.7 2.7-1.6 2.6-1.5 1.8-1 .5-.3"/><path stroke-opacity=".7" stroke-width=".7" d="m127.5 115.5 1.8-1 2.6-1.3 2.5-1.3 2.5-1.3 2.5-1.2 2.6-1.3 2.7-1.3 2.8-1.4 3-1.6 3-1.6 3-1.8 2.9-1.8 2.8-1.8L165 95q1.3-1 2.6-1.7l2.5-1.7 2.5-1.5 2.6-1.4 2.6-1.4 2.7-1.3 2.7-1.3 2.7-1.4 2.5-1.4 2.5-1.4 2.5-1.5 2.3-1.5 2.5-1.5 2.5-1.4 2.6-1.4 2.8-1.4 2.9-1.4 3-1.4 2.9-1.5 2.9-1.6 2.8-1.7 2.7-1.7 2.6-1.8 2.6-1.8 2.7-1.8 2.7-1.7 2.8-1.5 1.6-1h.2"/><path stroke-opacity=".7" stroke-width=".8" d="m138.8 112.3 1.9-1.2 2.3-1.6 2.4-1.5 2.4-1.5 2.5-1.4 2.6-1.3 2.7-1.3 2.7-1.2 2.8-1.2 2.7-1.3 2.6-1.2 2.6-1.4 2.6-1.4 2.6-1.5 2.6-1.7 2.7-1.7 2.8-1.8 2.8-1.8 3-1.8 3-1.7L194 81l2.9-1.6 2.8-1.5 2.7-1.5 2.5-1.4 2.5-1.4 2.4-1.4 2.4-1.3 2.5-1.4 2.5-1.5 2.6-1.4 2.7-1.5 2.7-1.5 2.6-1.4 2.6-1.4 2.6-1.4 2.5-1.4 2.4-1.3 2.5-1.4 2.4-1.3 1.7-1 .4-.1"/><path stroke-opacity=".6" d="m147.2 111.3 2.1-1.2 2.5-1.5 2.5-1.5 2.6-1.5 2.6-1.5 2.7-1.4 2.7-1.5 2.7-1.4 2.7-1.4 2.5-1.5 2.6-1.4 2.5-1.5 2.5-1.5 2.5-1.6 2.6-1.6 2.7-1.7 2.8-1.8 2.8-1.7q1.4-1 3-1.8l3-1.8 3-1.7 2.9-1.6 2.9-1.6 2.8-1.5 2.8-1.4 2.6-1.4 2.6-1.2 2.5-1.2 2.5-1.2 2.4-1.2 2.6-1.2L232 64l2.6-1.3 2.7-1.4 2.6-1.5 2.7-1.5 2.7-1.6 1.8-1.1.5-.3"/><path stroke-opacity=".8" stroke-width=".8" d="m130.2 122.7 1.5-.9 2.6-1.5 2.6-1.5 2.7-1.5 2.7-1.4 2.7-1.5 2.8-1.5 2.8-1.5 2.8-1.5 2.8-1.5 2.8-1.5 2.7-1.5 2.8-1.6 2.7-1.5 2.7-1.6 2.6-1.7 2.7-1.6 2.6-1.6 2.6-1.6 2.6-1.6 2.7-1.6 2.6-1.6 2.7-1.6 2.7-1.5 2.7-1.5 2.8-1.4 2.7-1.4 2.7-1.4 2.7-1.4L210 78l1.5-.8h.1"/><path stroke-opacity=".6" stroke-width=".7" d="m139.4 120.9 1.8-1.3 2.5-1.8 2.5-1.7 2.6-1.6 2.7-1.6 2.8-1.4 2.7-1.3 2.7-1.3 2.7-1.3 2.6-1.3 2.6-1.2 2.7-1.4 2.6-1.5 2.8-1.5 3-1.5 2.9-1.6 3-1.6 2.9-1.7 2.9-1.6 2.8-1.5 2.6-1.6 2.6-1.5 2.5-1.6 2.5-1.5 2.6-1.6 2.6-1.7 2.6-1.6 2.7-1.7 1.7-1 .3-.2"/><path stroke-opacity=".6" stroke-width=".6" d="m131 127.8 2.3-1.2 2.6-1.2 2.8-1.3 2.8-1.2 2.8-1.3 2.8-1.4 2.9-1.4 2.8-1.4 2.8-1.5 2.8-1.5 2.7-1.5 2.6-1.6 2.5-1.6 2.5-1.7 2.5-1.6 2.5-1.6 2.4-1.5 2.5-1.6 2.5-1.6 2.6-1.5 2.5-1.5 2.7-1.5 2.6-1.5 2.7-1.5 2.6-1.5 2.6-1.5 2.6-1.5 2.6-1.6L207 85l2.5-1.6L212 82l2.5-1.5 2.5-1.6 2.6-1.4 2.6-1.5 2.7-1.4 2.8-1.3 2.8-1.4 2.8-1.3 3-1.2 2.8-1.3 2.8-1.3 2.8-1.3 2.8-1.4 2.7-1.4 2.6-1.4 1.8-1 .5-.3"/><path stroke-opacity=".7" stroke-width=".9" d="m141.7 125.4 1.9-1 2.6-1.6 2.7-1.6 2.8-1.6 2.8-1.6 2.9-1.7 2.8-1.7 2.7-1.6 2.6-1.6 2.4-1.4 2.3-1.3 2.3-1.2 2.3-1.2 2.4-1.1 2.5-1.2 2.6-1.2 2.7-1.3 2.7-1.5 2.7-1.6 2.6-1.7 2.6-1.7 2.5-1.7 2.6-1.7 2.6-1.7 2.7-1.6 2.9-1.5 3-1.5 2.9-1.5 2.9-1.4 2.8-1.5 2.7-1.4 2.6-1.5 2.4-1.5 2.4-1.5 2.3-1.5 2.5-1.3 2.5-1.4 2.6-1.2 2.6-1.2 2.7-1.3 2.5-1.2 2.5-1.4 1.5-.8.2-.2"/><path stroke-opacity=".8" stroke-width=".6" d="m146.3 124 1.7-1 2.5-1.5 2.6-1.3 2.6-1.2 2.7-1.2 3-1.2 3-1.3 3-1.4 3-1.4 3-1.5 2.8-1.6 2.6-1.5 2.4-1.5 2.4-1.5 2.4-1.5 2.5-1.5 2.6-1.5 2.6-1.6 2.7-1.7 2.7-1.7 2.5-1.9 2.4-1.8 2.4-1.7 2.4-1.7 2.6-1.4 2.7-1.4 2.9-1.2 3-1 3.1-1.2 3-1 3-1.3 2.8-1.4 1.5-.8.2-.1"/><path stroke-opacity=".7" stroke-width=".8" d="m155.9 123 2-1.3 2.7-1.7 2.7-1.7 2.6-1.7 2.5-1.6 2.5-1.6 2.4-1.5 2.5-1.5 2.4-1.4 2.5-1.4 2.5-1.3 2.5-1.3 2.6-1.3 2.7-1.3 2.8-1.2 2.8-1.3 2.8-1.4 2.8-1.4 2.9-1.4 2.8-1.5 2.7-1.5 2.7-1.6 2.7-1.6 2.7-1.6 2.6-1.7 2.7-1.6 2.6-1.6 2.8-1.6 2.7-1.6 2.8-1.5 2.8-1.6 1.8-1 .4-.1"/><path stroke-opacity=".7" stroke-width=".6" d="m141.2 133.9 1.7-1 2.4-1.5 2.3-1.4 2.4-1.5 2.5-1.5 2.6-1.4 2.7-1.4 2.7-1.4 2.7-1.4 2.7-1.4 2.5-1.6 2.6-1.6 2.5-1.8 2.7-1.8 2.8-1.8q1.4-1 2.9-1.8l3-1.8 3-1.6 3-1.5 3-1.3 2.6-1.2 2.6-1.2 2.5-1.2 2.5-1.3 2.5-1.3 2.6-1.4 2.7-1.5 2.7-1.6 2.7-1.7 2.5-1.6 2.5-1.6 2.4-1.6 2.4-1.5 2.5-1.5 2.6-1.6 1.6-1 .3-.1"/><path stroke-opacity=".8" stroke-width=".5" d="m165.8 121 1.7-1.2 2.6-1.4 2.5-1.3 2.5-1.2 2.6-1 2.8-1.1 3-1.1 3.1-1.3 3.2-1.4 3.1-1.5 3-1.7 2.7-1.6 2.6-1.7 2.4-1.6 2.3-1.5 2.5-1.6 2.6-1.5 2.7-1.6 2.7-1.7 2.6-1.7 2.5-1.8 2.4-1.8 2.3-1.8 2.3-1.6L231 84l2.7-1.3q1.4-.6 2.9-1l3-1.1 3.2-1 1.9-.6.2-.1"/><path stroke-opacity=".7" stroke-width=".8" d="m161.6 126.8 2-1.4 2.7-1.7 2.5-1.6 2.5-1.4 2.4-1.3q1.1-.7 2.3-1.2l2.4-1.1 2.5-1.1 2.6-1.1 2.9-1.3 3-1.3 3-1.5 2.9-1.6 2.8-1.6 2.8-1.7 2.5-1.7 2.6-1.6 2.5-1.6 2.6-1.5 2.6-1.5 2.8-1.6 2.7-1.5 2.6-1.6 2.5-1.5 2.4-1.6 2.3-1.6 2.2-1.5 2.3-1.4 2.4-1.3q1.2-.7 2.5-1.2l2.8-1.2 2.8-1 1.9-.7.4-.2"/><path stroke-opacity=".6" stroke-width=".7" d="m139.5 141.5 2-1.4 2.7-1.6 2.7-1.6 2.9-1.4 2.8-1.3 2.8-1.3 2.8-1.2 2.7-1.2 2.6-1.3 2.6-1.3 2.7-1.4 2.6-1.4 2.8-1.5 2.9-1.5 2.9-1.5 2.9-1.5 2.9-1.6 2.8-1.5 2.7-1.4 2.5-1.5 2.4-1.5 2.4-1.5 2.3-1.6 2.4-1.6 2.4-1.6 2.5-1.7 2.6-1.8 2.6-1.7 2.8-1.7 2.7-1.6 2.6-1.6 2.6-1.4 2.6-1.4 2.5-1.2 2.6-1.2 2.5-1.2 2.7-1.1 2.8-1.2 3-1.3 2.9-1.4 3-1.4 3-1.6 1.9-1 .4-.3"/><path stroke-opacity=".6" stroke-width=".8" d="m143.2 144.2 2.1-1.5 2.4-1.8 2.3-1.7 2.4-1.6 2.5-1.5 2.5-1.5 2.7-1.3 2.8-1.3 2.7-1.3 2.8-1.2 2.7-1.3 2.6-1.4 2.6-1.4 2.6-1.4 2.7-1.5 2.7-1.6 2.8-1.5 2.8-1.5 2.9-1.5 2.8-1.5 2.8-1.5 2.6-1.5 2.5-1.5 2.4-1.6 2.4-1.6 2.4-1.6 2.4-1.7 2.6-1.6 2.6-1.7 2.6-1.5 2.7-1.5 2.6-1.3 2.6-1.3 2.5-1.3 2.6-1.2 2.5-1.2 2.6-1.2 2.7-1.4 2.7-1.4 3-1.5 2.8-1.6 3-1.7 2.8-1.7 1.9-1.1.5-.3"/><path stroke-opacity=".6" stroke-width=".5" d="m153.4 141 1.5-1 2.4-1.6 2.5-1.6 2.6-1.6 2.6-1.6 2.8-1.6 2.7-1.5 2.8-1.6 2.8-1.5 2.7-1.5 2.6-1.6 2.7-1.5 2.6-1.6 2.6-1.6 2.6-1.6 2.6-1.7 2.7-1.7 2.9-1.6 2.8-1.7 3-1.6 3-1.6 3-1.5 3-1.4 2.8-1.3 2.8-1.3 2.7-1.2 2.6-1.2 2.5-1.1 2.4-1.2 2.4-1.2 1.3-.7.2-.1"/><path stroke-opacity=".7" stroke-width=".6" d="m144.9 147.8 1.8-1 2.6-1.2 2.7-1.3 2.9-1.3 3-1.3 2.9-1.5 2.9-1.5 2.8-1.7 2.7-1.8 2.6-1.7q1.2-1 2.5-1.8l2.5-1.8 2.6-1.6 2.7-1.6 2.6-1.4 2.7-1.4 2.7-1.3 2.5-1.3 2.5-1.3 2.4-1.4 2.3-1.4 2.4-1.5 2.5-1.5 2.7-1.4 2.7-1.5 2.9-1.4 2.8-1.4 3-1.4 2.7-1.4 2.7-1.5 2.7-1.6 2.6-1.6 2.6-1.7 2.7-1.7 2.8-1.8 2.8-1.7 2.8-1.7 2.7-1.5 2.7-1.5 2.5-1.3 2.4-1.3 2.3-1.2 2.3-1.2 2.4-1.2 2.6-1.4 1.5-.8.3-.1"/><path stroke-opacity=".7" stroke-width=".6" d="m170 136.8 2.2-1.4 2.6-1.6 2.5-1.6 2.4-1.4 2.4-1.3q1-.7 2.2-1.2l2.3-1.2 2.4-1.1 2.6-1 2.7-1.2 2.8-1.2 3-1.3 3-1.5 3-1.6 3-1.7 2.8-1.8 2.7-1.8 2.7-1.9 2.5-1.8 2.6-1.7 2.7-1.7 2.7-1.6 2.8-1.5 2.8-1.4 2.8-1.5 2.8-1.3 2.7-1.5 2.5-1.4 2.4-1.4 2.3-1.5 1.5-1 .4-.3"/><path stroke-opacity=".6" d="m144.8 152.6 2.2-1.5 2.7-1.7 2.7-1.6 2.7-1.5 2.7-1.4 2.6-1.3 2.6-1.2 2.5-1.1 2.5-1.2 2.6-1.1 2.6-1.2 2.8-1.3 2.9-1.4 3-1.4 3-1.5 3-1.6 3.1-1.6 3-1.7 2.8-1.6 2.6-1.6 2.6-1.5 2.4-1.6 2.4-1.5 2.4-1.5 2.5-1.6 2.5-1.5 2.6-1.7 2.6-1.6 2.7-1.7 2.7-1.7 2.6-1.7 2.5-1.7 2.5-1.6 2.4-1.6 2.3-1.4 2.4-1.4 2.4-1.2 2.6-1.1 2.7-1.2 2.8-1 3-1.2 3-1.2 3-1.2 3-1.4 3-1.5 2-1.1.4-.3"/><path stroke-opacity=".8" d="m159 148.3 1.6-.9 2.5-1.2 2.7-1.2 2.8-1.3 3-1.2 2.9-1.4 3-1.5 2.9-1.6 2.8-1.7 2.6-1.8 2.6-1.8 2.5-1.8 2.6-1.8 2.5-1.6q1.3-.9 2.7-1.6l2.6-1.5 2.7-1.4 2.7-1.3 2.6-1.3 2.5-1.3 2.4-1.3 2.3-1.4 2.3-1.4 2.4-1.5 2.5-1.4 2.5-1.5 2.8-1.4 2.8-1.4 3-1.4 2.8-1.4 2.9-1.4 2.7-1.4 2.7-1.5 2.6-1.6 2.6-1.7 2.7-1.7 2.7-1.8 2.8-1.8 1.6-1 .2-.2"/><path stroke-opacity=".7" stroke-width=".8" d="m155.8 154.3 1.6-1 2.7-1.6 2.7-1.7 2.7-1.7 2.7-1.7 2.7-1.7 2.5-1.6 2.5-1.6 2.3-1.4 2.4-1.3 2.4-1.3 2.5-1.2 2.6-1.3 2.7-1.3 2.7-1.4 2.8-1.4 2.8-1.5 2.6-1.6 2.7-1.5 2.6-1.6 2.6-1.5 2.7-1.5 2.8-1.5 2.8-1.5 2.8-1.5 2.8-1.6 2.7-1.6 2.6-1.6 2.5-1.7 2.3-1.6 2.4-1.5 2.4-1.5 2.5-1.3 2.6-1.3 2.7-1.3 1.5-.7h.2"/><path stroke-opacity=".8" stroke-width="1.1" d="m155.4 156.7 1.6-1 2.5-1.3 2.6-1.5 2.6-1.5 2.7-1.5 2.7-1.5 2.6-1.5 2.7-1.5 2.5-1.4 2.5-1.5 2.4-1.4 2.4-1.5 2.5-1.6 2.6-1.6 2.7-1.7 2.8-1.7 2.9-1.7 3-1.8 3-1.7q1.4-1 2.9-1.7l2.8-1.6 2.8-1.5 2.7-1.5 2.6-1.3 2.6-1.2 2.6-1.2 2.7-1.2 2.7-1.2 2.7-1.3 2.8-1.4 2.8-1.4 2.6-1.6 2.6-1.6 2.5-1.6 2.4-1.7 2.3-1.7 2.4-1.6 2.4-1.6 2.5-1.6 2.6-1.5 2.8-1.5 2.8-1.6 3-1.5 1.6-1h.2"/><path stroke-opacity=".7" stroke-width=".7" d="m176 147.7 1.7-1 2.6-1.6 2.6-1.6 2.5-1.5 2.4-1.5 2.5-1.4 2.5-1.4 2.5-1.3 2.6-1.3 2.7-1.3 2.7-1.4 2.8-1.3 2.8-1.4 2.8-1.5 2.7-1.6 2.7-1.6 2.7-1.7 2.7-1.7 2.6-1.7 2.7-1.7 2.7-1.6 2.8-1.6 2.8-1.6 2.9-1.5 2.8-1.5 2.8-1.4 2.7-1.5 2.6-1.4 2.6-1.4 2.5-1.5 2.4-1.4 2.5-1.5 2.5-1.5 1.5-.9h.2"/><path stroke-opacity=".9" stroke-width=".8" d="m162 159.6 2.3-1.5 2.7-1.7 2.6-1.8 2.5-1.8 2.4-1.8 2.3-1.7 2.4-1.6 2.4-1.5 2.5-1.4 2.6-1.4 2.8-1.3 2.9-1.4 2.8-1.4 2.9-1.4 2.7-1.5 2.7-1.4 2.6-1.5 2.7-1.4 2.6-1.4 2.8-1.3 2.9-1.4 2.8-1.3 2.9-1.5 2.8-1.4 2.6-1.6 2.5-1.7 2.4-1.7 2.3-1.8 2.4-1.8q1.1-1 2.4-1.8l2.5-1.7 2.6-1.5 2.7-1.5 2.7-1.3 2.8-1.3 2.6-1.2 2.6-1.2 2.6-1.3 1.8-.9.4-.2"/><path stroke-opacity=".8" stroke-width=".8" d="m153.6 166 2.3-1.4 2.7-1.5 2.6-1.4 2.7-1.5 2.6-1.5 2.7-1.4 2.6-1.5 2.6-1.4 2.6-1.4 2.6-1.4 2.6-1.5 2.5-1.4 2.6-1.4 2.5-1.5 2.6-1.4 2.7-1.5 2.6-1.5 2.7-1.6 2.8-1.5 2.8-1.6 2.8-1.6 2.8-1.7 2.8-1.6 2.8-1.7 2.8-1.6 2.7-1.7 2.8-1.6 2.6-1.5 2.7-1.6 2.6-1.5 2.7-1.5 2.6-1.5 2.6-1.4 2.6-1.4 2.6-1.4 2.7-1.4 2.6-1.4 2.7-1.3 2.7-1.4 2.7-1.4 2.7-1.4 1.8-1 .5-.3"/><path stroke-opacity=".6" stroke-width=".4" d="m153.8 169.2 2.1-1.7 2.3-1.9 2.3-1.8q1.1-1 2.2-1.7l2.3-1.7 2.4-1.5 2.5-1.3 2.8-1.3 2.8-1.2 3-1.3 3-1.2 3-1.3 2.8-1.3 2.8-1.4 2.7-1.5 2.6-1.4 2.7-1.5 2.6-1.5 2.7-1.4 2.8-1.4 2.9-1.4 2.8-1.4 2.9-1.4 2.8-1.5 2.6-1.5 2.5-1.7 2.3-1.7 2.2-1.8 2.2-1.9 2.3-1.8q1-1 2.3-1.8l2.4-1.8 2.6-1.6 2.8-1.5 2.8-1.4 2.8-1.3 2.8-1.1 2.7-1.1 2.7-1 2.6-1.2 2.6-1.2 2.6-1.2 2.7-1.4 2.8-1.6 3-1.6 2-1 .6-.4"/><path stroke-opacity=".8" stroke-width=".8" d="m157.2 169 2.2-1 2.8-1.3 2.8-1.3 2.7-1.3 2.6-1.4 2.6-1.4 2.6-1.5 2.6-1.6 2.8-1.7 2.8-1.8 3-1.8 2.9-1.9 2.9-1.7 2.8-1.7 2.6-1.6 2.5-1.4 2.4-1.4 2.4-1.2 2.3-1.2 2.3-1.2 2.5-1.2 2.5-1.3 2.7-1.4 2.7-1.4 2.6-1.5 2.6-1.5 2.6-1.5 2.5-1.6 2.4-1.5 2.6-1.5 2.6-1.5 2.7-1.5 2.8-1.5 3-1.5 3-1.6 3-1.6 2.8-1.7 2.8-1.7 2.6-1.8 2.6-1.6 2.4-1.6 2.5-1.5 2.4-1.3 2.6-1.3 2.6-1.2 1.7-.7.4-.2"/><path stroke-opacity=".7" stroke-width=".7" d="m166 167.2 1.7-1 2.5-1.6 2.4-1.5 2.5-1.5 2.5-1.5 2.6-1.5 2.5-1.5 2.7-1.5 2.7-1.5 2.7-1.5 2.8-1.5 2.8-1.5 2.8-1.6 2.9-1.6 2.8-1.5 2.8-1.6 2.8-1.6 2.7-1.6 2.7-1.6 2.6-1.6 2.6-1.6 2.6-1.5 2.6-1.6 2.6-1.4 2.6-1.5 2.6-1.4 2.6-1.3 2.7-1.4 2.6-1.3 2.7-1.2 2.7-1.3 2.7-1.3 2.7-1.3 2.6-1.3 2.6-1.3 2.5-1.4 2.6-1.4 1.4-.9h.2"/><path stroke-opacity=".8" stroke-width=".8" d="m161.7 173 2.3-1.4 2.6-1.7 2.7-1.7q1.3-1 2.7-1.8l2.8-1.9q1.3-1 2.7-1.8l2.8-1.8 2.6-1.7 2.5-1.5 2.5-1.4 2.3-1.4 2.3-1.2 2.3-1.2 2.4-1.1 2.5-1.2 2.6-1.2 2.8-1.3 2.9-1.4 2.9-1.5 3-1.6 2.8-1.6 2.8-1.6 2.7-1.7 2.6-1.6 2.7-1.6 2.6-1.6 2.8-1.6 2.8-1.5 3-1.5 2.9-1.6 2.9-1.6 2.8-1.6 2.7-1.7 2.6-1.7 2.5-1.6 1.6-1.2.4-.3"/><path stroke-opacity=".6" stroke-width=".8" d="m183.4 161.6 2.3-1.2 2.8-1.3 2.7-1.4 2.8-1.3 2.8-1.4 2.8-1.4 2.8-1.4 2.8-1.5 2.8-1.4 2.8-1.5 2.8-1.6 2.7-1.5 2.8-1.6 2.6-1.5 2.7-1.7q1.3-.7 2.5-1.6l2.6-1.6 2.6-1.6 2.5-1.5 2.6-1.6 2.5-1.6 2.6-1.6 2.6-1.5 2.6-1.5 2.6-1.6 2.7-1.5 2.7-1.5 2.6-1.5 2.7-1.5 2.7-1.5 2.7-1.5 2.7-1.6 1.8-1 .4-.3"/><path stroke-opacity=".7" stroke-width=".5" d="m180.5 167.3 1.8-1 2.7-1.5 2.7-1.5 2.6-1.5 2.7-1.5 2.6-1.6 2.7-1.5 2.8-1.6 2.7-1.7 2.8-1.6 2.9-1.7 2.8-1.7 2.9-1.7 2.8-1.6 2.8-1.7 2.8-1.5 2.7-1.6 2.6-1.5 2.5-1.4 2.5-1.4 2.4-1.3 2.5-1.3 2.4-1.3 2.4-1.2 2.5-1.3 2.5-1.2 2.6-1.3 2.6-1.3 2.7-1.4 2.7-1.5 2.7-1.5 2.7-1.5 2.7-1.6 2.7-1.6 2.6-1.7 2.6-1.6 2.6-1.7 1.5-1 .3-.1"/><path stroke-opacity=".6" stroke-width=".6" d="m164.8 180.8 1.5-.8 2.5-1.4 2.6-1.5 2.5-1.5 2.5-1.5 2.6-1.6 2.6-1.7 2.7-1.7 2.6-1.6 2.7-1.7 2.7-1.7 2.7-1.7 2.7-1.6 2.6-1.7 2.6-1.6 2.6-1.5 2.5-1.6 2.5-1.5 2.4-1.5 2.5-1.5 2.4-1.5 2.5-1.5 2.5-1.5 2.5-1.6 2.6-1.5 2.7-1.5 2.7-1.6 2.8-1.5 2.9-1.6 2.9-1.5 2.9-1.6 3-1.5 2.8-1.5 3-1.4 2.8-1.5 2.8-1.3 2.7-1.4 2.7-1.3 2.7-1.3 2.6-1.3 2.6-1.3 2.6-1.3 2.7-1.3 2.6-1.3 1.5-.7.2-.1"/></g><clipPath id="f"><path d="M158.1 85.8 240 37.5l1.5 99-84 39Z"/></clipPath><g fill="none" stroke="url(#a)" stroke-linecap="round" stroke-linejoin="round" clip-path="url(#f)"><path stroke-opacity=".7" stroke-width=".5" d="M122 105q.3-.3 1.7-1l2.6-1.6 3-1.5 3-1.6 3.1-1.6 3.2-1.8 3-1.8 2.9-1.8 2.6-1.8 2.5-1.7 2.4-1.5 2.4-1.4 2.5-1.2 2.6-1.1 2.6-1 2.7-1 2.7-1.2L170 79l2.4-1.4 2.4-1.7 2.3-1.7 2.4-1.8 2.6-1.9 2.8-1.8 3-1.7 3.1-1.7 3.2-1.5 3-1.5 3-1.5 2.6-1.5 2.6-1.5 2.6-1.6 1.5-1h.2"/><path stroke-opacity=".6" stroke-width=".7" d="m120.4 111.8 2.4-1.4 2.7-1.6 2.7-1.6 2.7-1.7 2.6-1.6 2.7-1.6 2.5-1.7 2.6-1.6 2.5-1.5 2.5-1.6 2.4-1.5 2.5-1.5 2.4-1.4L156 90l2.5-1.4 2.4-1.4 2.6-1.3 2.5-1.3 2.6-1.3 2.7-1.3 2.6-1.3 2.7-1.3 2.7-1.3 2.8-1.4 2.7-1.4 2.8-1.4 2.7-1.4L193 71l2.7-1.5 2.6-1.5 2.6-1.6 2.7-1.5 2.6-1.6 2.6-1.6 2.6-1.6 2.6-1.5 1.9-1.1.5-.3"/><path stroke-opacity=".6" stroke-width=".9" d="m161 94.8 2.2-1.4 2.6-1.6 2.5-1.7 2.4-1.7 2.2-1.7 2.2-1.5 2.3-1.6 2.4-1.5 2.7-1.5 3-1.6 3-1.6 3-1.7 3-1.7 2.8-1.6 2.7-1.6 2.6-1.3 2.5-1.3 2.7-1.1q1.3-.6 2.7-1l2.8-1.1 2.8-1 2.8-1.3 1.8-.9.5-.2"/><path stroke-opacity=".8" stroke-width=".7" d="m159 99.7 2.4-1.3 2.8-1.5 2.8-1.6 2.8-1.5 2.7-1.6 2.6-1.6 2.7-1.6 2.5-1.7 2.6-1.6 2.4-1.6 2.5-1.6 2.5-1.6 2.4-1.6 2.5-1.6 2.4-1.5 2.5-1.5 2.5-1.5 2.6-1.4 2.5-1.4 2.6-1.3 2.6-1.4 2.7-1.2 2.6-1.3 2.6-1.3 2.6-1.2 2.6-1.3 2.6-1.2 2.6-1.3 2.5-1.3 2.5-1.3 2.5-1.3 2.5-1.4 1.6-1 .4-.2"/><path stroke-opacity=".8" stroke-width=".8" d="m137 115.5 2.2-1.1 2.8-1.4 2.7-1.3 2.7-1.4 2.7-1.3 2.6-1.3 2.6-1.3 2.6-1.3 2.6-1.3 2.6-1.4 2.7-1.4 2.7-1.4 2.7-1.4 2.8-1.5 2.7-1.4 2.8-1.5 2.8-1.5 2.8-1.4 2.8-1.5 2.7-1.4 2.6-1.5 2.6-1.4 2.5-1.4 2.5-1.4 2.4-1.4 2.4-1.4 2.3-1.4 2.3-1.5 2.4-1.4 2.3-1.5 2.4-1.5 2.4-1.6 2.5-1.5 2.6-1.7 2.6-1.7 2.7-1.7 1.7-1 .4-.3"/><path stroke-opacity=".6" stroke-width=".5" d="m147.5 117.4 1.4-1 2.4-1.4 2.3-1.5 2.2-1.5 2.3-1.5 2.3-1.4 2.5-1.5 2.5-1.4 2.7-1.4 2.7-1.3 2.8-1.4 2.9-1.4 2.8-1.4 2.9-1.5 2.8-1.6 2.8-1.6 2.6-1.7 2.7-1.9 2.6-1.8 2.7-1.9 2.7-1.9 2.7-1.9 2.9-1.9 3-1.8 1.6-1h.1"/><path stroke-opacity=".6" stroke-width=".7" d="m173.8 107.5 1.4-1 2.5-1.7q1.1-1 2.3-1.8l2.4-1.8 2.3-1.9 2.5-1.8 2.4-1.7 2.6-1.8 2.6-1.6 2.7-1.6 2.7-1.5 2.7-1.4 2.7-1.4 2.7-1.3 2.6-1.3 2.5-1.3 2.6-1.3 2.5-1.4 2.5-1.3 2.6-1.4 2.7-1.5 1.5-.8h.1"/><path stroke-opacity=".8" stroke-width=".8" d="m195.4 100 2.5-1.3 2.7-1.7q1.3-.9 2.4-1.9l2.3-2 2.1-2 2.2-2 2.2-1.8 2.4-1.8 2.6-1.7 2.6-1.5 2.8-1.4 2.8-1.4 2.7-1.3 2.6-1.3 2.5-1.4 2.5-1.4 2.5-1.4 2.6-1.5 2.8-1.4 3-1.4 3.1-1.4 2.3-.9.6-.2"/><path stroke-opacity=".7" stroke-width=".5" d="m153.4 126.2 2.1-.7 3-1.1 2.8-1.2 2.6-1.4 2.5-1.5 2.3-1.7 2.3-1.7 2.4-1.8 2.4-1.8 2.6-1.8 2.7-1.7 2.7-1.7 2.6-1.6 2.7-1.5 2.5-1.6 2.4-1.6 2.3-1.5 2.3-1.7 2.3-1.7 2.4-1.7 2.7-1.7 2.9-1.6 3-1.6 3.2-1.5 3.2-1.3 3.2-1.2 3.1-1 3-1.1 2.7-1 2.7-1 2.5-1.2 2.6-1.2 2.5-1.4 1.5-1h.3"/><path stroke-opacity=".8" stroke-width=".4" d="m168.5 120.7 2-1 2.7-1.3 2.8-1.5 2.6-1.4 2.6-1.5 2.5-1.5 2.4-1.5 2.5-1.4 2.4-1.5 2.5-1.4 2.6-1.4 2.6-1.4 2.6-1.3 2.6-1.3 2.7-1.4 2.6-1.3 2.6-1.4 2.6-1.4 2.5-1.5 2.5-1.5 2.5-1.7 2.4-1.6 1.5-1 .2-.2"/><path stroke-opacity=".9" stroke-width=".6" d="m174.3 123.1 2-1 3-1.4 2.7-1.4 2.8-1.4 2.8-1.4 2.7-1.5 2.6-1.5 2.7-1.5 2.6-1.6 2.6-1.6 2.6-1.6 2.6-1.6 2.7-1.7 2.6-1.7 2.7-1.7 2.7-1.7 2.7-1.7 2.8-1.6 2.7-1.7 2.8-1.6 2.7-1.6 2.7-1.5 2.7-1.5 2.6-1.5 2.6-1.4 2.5-1.3L246 82l2.5-1.2 2.4-1.3 2.4-1.3 2.3-1.3 2.4-1.2 1.5-.8.3-.2"/><path stroke-opacity=".8" stroke-width=".6" d="m167 129 2-1 2.7-1.2 2.8-1.1 3-1.2 3-1 3.1-1.3 3.1-1.2 3-1.3 3-1.5 2.8-1.5 2.7-1.5 2.5-1.6 2.5-1.7 2.4-1.6 2.4-1.6 2.5-1.6 2.5-1.6 2.6-1.5 2.7-1.5 2.7-1.6 2.7-1.5 2.6-1.6 2.6-1.6 2.5-1.7 2.4-1.7 2.4-1.7q1.1-1 2.3-1.8l2.4-1.7 2.5-1.7 2.6-1.6 2.7-1.5 2.9-1.3 3-1.3 3-1.2 3.1-1.2 2-.7.4-.1"/><path stroke-opacity=".6" stroke-width=".4" d="m162 139.1 2.1-1.3 2.6-1.8 2.7-1.7 2.7-1.7 2.7-1.6 2.8-1.6 2.7-1.5 2.6-1.5 2.7-1.5 2.6-1.5 2.5-1.5 2.6-1.5 2.7-1.5 2.7-1.5 2.8-1.5 3-1.6 2.8-1.5 3-1.5 3-1.4 2.8-1.4 2.8-1.4 2.8-1.3 2.6-1.3 2.5-1.2 2.5-1.3 2.4-1.3 2.5-1.4 2.4-1.4 2.6-1.5 2.6-1.6 2.6-1.6 2.7-1.8 2.7-1.7 2.6-1.8L255 86l2.6-1.8 1.6-1.1.4-.3"/><path stroke-opacity=".7" stroke-width=".8" d="m180.9 134 1.6-1.2 2.3-1.8 2.4-1.8 2.4-1.7q1.2-1 2.5-1.7l2.5-1.7 2.7-1.5 2.7-1.4 2.7-1.4 2.7-1.3 2.7-1.3 2.6-1.3 2.6-1.3 2.5-1.3 2.6-1.4 2.6-1.4 2.7-1.4 2.8-1.5 3-1.5 2.8-1.4 3-1.5 2.9-1.4 1.7-.9.3-.1"/><path stroke-opacity=".8" stroke-width=".6" d="m179.7 140.2 2.6-1.1 2.9-1.3 2.7-1.5 2.6-1.5 2.5-1.6 2.4-1.7 2.4-1.7 2.4-1.6 2.5-1.7 2.6-1.5 2.6-1.6 2.7-1.5 2.6-1.5 2.6-1.5 2.5-1.5 2.5-1.6 2.5-1.5 2.5-1.6 2.8-1.5 2.8-1.4 3-1.3 2.9-1.3 3-1.2 2.8-1.2 2.7-1.3 2.6-1.3 2.5-1.5 2.5-1.5 1.7-1.1.5-.4"/><path stroke-opacity=".7" stroke-width=".6" d="m179 144.5 2-1.1 2.7-1.5 2.6-1.4 2.7-1.5 2.8-1.4 2.8-1.4 2.8-1.4 2.8-1.4 2.9-1.4 2.8-1.5 2.8-1.4 2.8-1.5 2.7-1.5 2.7-1.5 2.7-1.6 2.7-1.6 2.6-1.6 2.6-1.7 2.7-1.7 2.6-1.7 2.7-1.7 2.7-1.8 2.7-1.7 2.8-1.7 2.8-1.7 2.8-1.7 2.9-1.7 1.8-1 .4-.3"/><path stroke-opacity=".7" stroke-width=".6" d="m206.8 132.4 2.3-1.4 2.8-1.6 2.7-1.5 2.6-1.4 2.6-1.4 2.6-1.3 2.6-1.3 2.6-1.2 2.7-1.3 2.7-1.3 2.7-1.4 2.9-1.3 2.9-1.5 2.9-1.5 3-1.5 2.9-1.6 2.8-1.6 2.9-1.6 2.7-1.6 2.7-1.6 2.6-1.6 2.6-1.6 1.7-1 .4-.3"/><path stroke-opacity=".9" stroke-width=".4" d="m218.1 131 2-1.5 2.4-1.8 2.6-1.7 2.7-1.7 2.7-1.6 2.7-1.6 2.8-1.5 2.7-1.4 2.7-1.4 2.7-1.3 2.7-1.4 2.5-1.3 2.6-1.3 2.6-1.3 2.6-1.4 2.6-1.4 2.7-1.4 2.7-1.4 2.8-1.5 2.9-1.4 1.8-1 .5-.2"/><path stroke-opacity=".8" stroke-width=".7" d="m176 158.2 2.2-1.3 2.5-1.5 2.4-1.3q1.1-.7 2.3-1.2l2.3-1.1q1.1-.6 2.3-1l2.4-1.1 2.5-1 2.8-1.2 2.9-1.2 3-1.4 3.1-1.5 3.1-1.6 3-1.8 3-1.9 2.8-2 2.6-1.8 2.5-1.9 2.5-1.7 2.5-1.7 2.5-1.6 2.7-1.4 2.7-1.4 2.7-1.4 2.7-1.3 2.7-1.3 2.5-1.4 2.4-1.4 1.6-1 .4-.3"/><path stroke-opacity=".9" stroke-width=".5" d="m183.1 160.2 2-1.1 2.5-1.5 2.6-1.5 2.4-1.5 2.5-1.5 2.4-1.5 2.4-1.5 2.4-1.5 2.4-1.5 2.5-1.5 2.5-1.4 2.6-1.4 2.6-1.4 2.6-1.3 2.6-1.3 2.7-1.3 2.7-1.3 2.6-1.3 2.6-1.3 2.6-1.2 2.6-1.3 1.6-.9.3-.1"/><path stroke-opacity=".7" stroke-width=".7" d="m174.4 167.6 2.3-1 3-1.4 3.2-1.3 3-1.3 3.1-1.4 3-1.3 3-1.4 2.8-1.4 2.8-1.4 2.8-1.5 2.7-1.5 2.6-1.5 2.5-1.5 2.6-1.6 2.5-1.5 2.6-1.6 2.6-1.5 2.6-1.6 1.7-1 .4-.1"/><path stroke-opacity=".8" stroke-width=".6" d="m229.2 141.7 2-1 2.7-1.2 2.6-1.2 2.6-1.2 2.5-1.2 2.5-1.2 2.6-1.3 2.6-1.3 2.7-1.4 2.8-1.6 3-1.6 3-1.7q1.4-1 3-1.8l3-2 2.9-1.8 2.8-1.8 2.7-1.9 2.6-1.7 2.5-1.6 1.5-1 .3-.2"/></g><clipPath id="g"><path d="M158.1 85.8 240 45v19.5L158.1 99Z"/></clipPath><g fill="none" stroke="url(#a)" stroke-linecap="round" stroke-linejoin="round" clip-path="url(#g)"><path stroke-opacity=".8" stroke-width=".5" d="m154.1 89 2-1 2.8-1.3 2.7-1.4 2.6-1.4 2.6-1.4 2.6-1.4 2.5-1.5 2.7-1.4 2.6-1.5 2.7-1.4 2.7-1.5 2.6-1.3 2.6-1.4 2.5-1.4 2.4-1.4 2.4-1.5 2.4-1.5 2.5-1.6 2.5-1.7 2.7-1.6 2.7-1.7 2.8-1.7 2.8-1.7 2.8-1.6 2.7-1.5 2.7-1.4 2.6-1.3L227 48l1.6-.7.3-.1"/><path stroke-opacity=".7" stroke-width=".5" d="m155.4 91.7 2.2-1.2 2.6-1.5 2.6-1.4 2.5-1.5 2.5-1.5 2.5-1.6 2.5-1.5 2.4-1.5 2.5-1.6 2.5-1.5 2.5-1.5 2.5-1.6 2.6-1.5 2.6-1.5 2.6-1.5 2.6-1.5 2.7-1.5L201 65l2.6-1.5 2.7-1.5 2.7-1.5 2.6-1.5 2.7-1.6 2.6-1.5 2.6-1.6 2.6-1.5 2.6-1.6 2.6-1.5 2.6-1.5 2.6-1.6L235 45l2.7-1.5 1.8-1 .5-.2"/><path stroke-opacity=".6" stroke-width=".7" d="m153 94.1 1.6-1 2.6-1.5L160 90l2.8-1.5 2.8-1.5 3-1.6 2.8-1.5 2.8-1.6 2.7-1.6 2.7-1.6 2.5-1.5 2.6-1.6 2.5-1.4 2.6-1.4 2.6-1.3 2.7-1.3 2.6-1.2 2.7-1.3L203 67l2.5-1.3 2.4-1.4 2.4-1.5 2.4-1.5 2.4-1.7 2.5-1.7 2.5-1.7 2.7-1.7 2.7-1.7 2.8-1.6 2.9-1.5 2.8-1.5 2.7-1.5 2.7-1.4 1.6-.8.2-.1"/><path stroke-opacity=".8" stroke-width=".4" d="m154.6 95.7 2.2-1.2 2.6-1.5 2.7-1.5 2.7-1.5 2.6-1.5 2.6-1.4 2.6-1.5 2.6-1.4 2.5-1.5 2.5-1.4 2.6-1.5 2.5-1.4 2.7-1.5 2.7-1.5 2.7-1.6 2.8-1.5 2.8-1.6 2.8-1.7 2.9-1.6 2.8-1.7 2.8-1.7 2.8-1.7 2.7-1.6 2.7-1.6 2.7-1.6 2.6-1.5 2.7-1.5 2.6-1.4 2.7-1.4 2.7-1.4 2.7-1.4 2.7-1.3 1.8-.9.4-.2"/><path stroke-opacity=".6" stroke-width=".6" d="m168.5 91.1 2-1 2.7-1.3 2.8-1.5 2.6-1.6 2.7-1.5 2.5-1.7 2.6-1.6 2.6-1.7 2.6-1.7 2.6-1.7 2.6-1.6 2.7-1.7 2.7-1.7 2.7-1.6 2.7-1.6 2.7-1.5 2.7-1.5 2.7-1.6 2.6-1.5L221 60l2.6-1.4 2.6-1.5 2.6-1.5 2.6-1.5 2.6-1.6 2.7-1.5 2.7-1.5 1.6-1h.3"/><path stroke-opacity=".7" stroke-width=".5" d="m173.3 88.8 2-1.2 2.8-1.6 2.6-1.4 2.6-1.4 2.5-1.4 2.6-1.3 2.7-1.3 2.7-1.3 2.7-1.3 2.8-1.4 3-1.4 2.8-1.5 3-1.5 2.8-1.5 2.9-1.6 2.8-1.6 2.7-1.6 2.6-1.6 2.6-1.6 2.6-1.6 2.5-1.6 2.6-1.5 1.7-1 .3-.2"/><path stroke-opacity=".7" stroke-width=".6" d="m168.6 94.2 1.8-1.2 2.6-1.7 2.7-1.6 2.8-1.5 2.7-1.5 2.6-1.3 2.6-1.3L189 83l2.5-1.3 2.6-1.2 2.7-1.4 2.8-1.5 3-1.5 3-1.7 3-1.7 3-1.7 2.8-1.7 2.8-1.7 2.6-1.6 2.6-1.6 2.6-1.5 2.6-1.6 2.7-1.5 2.7-1.5 2.7-1.6 2.7-1.6 2.7-1.5 1.6-1 .2-.1"/><path stroke-opacity=".7" stroke-width=".5" d="m179.8 90.2 2-1.1 2.6-1.5 2.7-1.5 2.7-1.5 2.7-1.5 2.7-1.5 2.6-1.5 2.6-1.4 2.6-1.5 2.5-1.4 2.4-1.3 2.5-1.4 2.4-1.3 2.5-1.3 2.4-1.4 2.6-1.4 2.6-1.4 2.6-1.4 2.7-1.5 2.8-1.6 2.7-1.6 2.7-1.6 2.7-1.6 2.7-1.7 1.7-1 .4-.3"/><path stroke-opacity=".9" stroke-width=".4" d="m169.5 98 1.7-1 2.6-1.4 2.6-1.5 2.4-1.5 2.4-1.5 2.4-1.4 2.4-1.4 2.5-1.3 2.5-1.3 2.7-1.4 2.7-1.3 2.8-1.4 2.8-1.4 2.8-1.6q1.4-.7 2.7-1.6l2.7-1.6 2.7-1.8 2.6-1.7 2.7-1.8q1.3-1 2.7-1.8l2.7-1.7 2.9-1.6 2.8-1.6 3-1.5 2.8-1.4 2.9-1.3 2.8-1.4 2.6-1.3 1.5-.7.2-.1"/><path stroke-opacity=".8" stroke-width=".3" d="m170.4 99.8 1.8-1.2L175 97q1.3-1 2.7-1.8l2.5-1.6 2.5-1.6 2.5-1.5 2.5-1.3 2.6-1.4 2.7-1.3 2.8-1.3 2.8-1.3 3-1.5 2.9-1.4 2.8-1.6 2.8-1.5 2.7-1.5 2.6-1.6 2.7-1.5 2.7-1.5 2.7-1.5 2.8-1.6 2.8-1.5 2.7-1.6 1.6-1 .2-.1"/><path stroke-opacity=".7" stroke-width=".7" d="m171.7 100.7 1.7-1L176 98l2.7-1.6 2.7-1.6 2.8-1.5 2.8-1.5 2.8-1.5 2.8-1.5 2.8-1.5 2.7-1.6 2.8-1.5 2.6-1.5 2.7-1.5 2.7-1.5 2.7-1.5 2.7-1.5 2.8-1.5 2.8-1.4 2.7-1.4 2.8-1.4 2.7-1.5 2.6-1.4 2.6-1.5 1.5-.8.2-.1"/><path stroke-opacity=".9" stroke-width=".5" d="m163 108.1 1.8-1 2.7-1.5 2.6-1.5 2.6-1.5 2.5-1.5 2.5-1.5 2.6-1.5 2.5-1.5 2.6-1.5 2.6-1.4 2.6-1.5 2.7-1.4 2.6-1.4 2.8-1.4 2.6-1.5 2.7-1.4 2.7-1.4 2.7-1.5 2.6-1.5 2.6-1.5 2.6-1.5 2.6-1.6 2.6-1.6 2.7-1.7 2.6-1.6 2.7-1.7 2.8-1.7 2.7-1.6 2.8-1.7 2.9-1.6 2.8-1.6 1.8-1 .3-.1"/></g><path fill="none" stroke="url(#a)" stroke-linecap="round" stroke-linejoin="round" stroke-opacity=".8" stroke-width=".8" d="m13 63.4.3-3.7.1-.8.3-.6.5-.4q.3-.2.7-.2h.8l2 .3 3 .6 3 .6 3 .5 2.8.6 3 .6 2.9.5 3 .5 3 .5 3 .5 3.1.5 3.1.6 3.1.5 3 .7 3 .6 2.9.8 2.8.7 2.9.8 2.8.7 2.9.7 2.9.6 3 .6 2.9.5 3 .5 2.9.5 2.9.4 2.9.5 2.8.5 2.9.6 2.9.5 3 .6 3 .6 3 .6 3.2.6 3 .6 3.2.6 3 .6 3 .5 2.9.6 2.9.7 2.9.6 2.9.7 3 .7 2.9.7 3 .7 3 .7 2.8.6 3 .5q1.4.3 1.3 1.8l-.2 2.9-.1 2.9-.2 2.9v11.9l.2 3v3.2l.1 3.2v21.6l.1 3.1v9.3l-.1 3q0 1.6-.2 3.1l-.1 3-.2 3-.2 3v3l-.1 2q0 .6-.2 1l-.5.9-.7.5q-.3.2-.8.2h-1.2l-2-.6-2.9-.7-3-.7-2.9-.7-3-.5-3-.6-2.9-.5-2.9-.6-2.9-.5-2.8-.6-2.8-.7-2.9-.7-2.8-.7-3-.7-3-.8-3-.8-3.1-.7-3.1-.7-3-.7-3.1-.7-3-.7-3-.7-2.9-.8-3-.7-3-.8-3-.7-3-.7-3-.7-3-.7-3-.6-2.8-.6-2.9-.5-2.8-.6-2.8-.5-2.8-.6-2.9-.6-2.9-.7-3-.7-3-.8-3-.8-3-.8-3-.8-3-.8-3-.8-3-.7-2.2-.6q-.9-.3-1.5-.7t-1.2-.8-1-1.1l-.6-1.3q-.3-.7-.4-1.6l-.2-2.3-.2-3-.1-3.1-.2-3.1v-6.1l.1-3.1.1-3v-3l.1-3v-9l-.2-3.1v-16l-.1-3.2-.1-3.2-.2-3.2-.2-3-.2-3-.2-3-.2-3v-1.6"/><path fill="none" stroke="url(#a)" stroke-linecap="round" stroke-linejoin="round" stroke-opacity=".6" stroke-width=".7" d="m13.3 63.8.4-4.1q0-.5.2-.9l.3-.6.5-.4.7-.2h.8l2 .3 3 .6 3 .5 3 .5 3 .5 2.9.5 2.9.6 2.8.5 2.9.6 2.9.5 2.9.6 2.9.7 3 .6 2.9.7 3 .7 2.9.7 3 .7 2.9.7 2.9.7 2.9.6 2.9.7 2.9.6 2.8.5 3 .6 2.8.5 3 .6 3 .5 3 .5 3 .5 3 .5 3 .5 3 .6 3.2.5 3 .6 3 .6 3 .6 3 .6 3 .6 2.8.6 3 .6 2.9.5 2.9.6 3 .6 2.9.6 3 .5 3 .6 2.9.6 3 .6q1.4.3 1.4 1.9v6.2l-.2 3.1v3.2l-.2 3.1-.1 3.2-.1 3-.1 3.2-.1 3v15.1l.1 3v2.9l.1 3v32.6q0 .6-.2 1.1l-.5.9-.7.5q-.3.3-.8.3h-1.2q-.6 0-2-.4l-3-.6-2.9-.7-3-.7-3-.6-3-.7-3-.7-3-.7-3.2-.7-3-.6-3-.7-3.1-.6-3-.7-3-.6-3-.7-2.8-.7-3-.7-2.9-.7-2.9-.7-3-.7-2.9-.8-3-.8-3-.8-3-.7-2.9-.8-3-.8-2.9-.7-2.9-.7-2.9-.7-2.8-.7-3-.7-2.8-.6-2.8-.6-3-.6-2.8-.5-3-.6-3-.6-3-.6-3-.6-3-.7-3-.7-3.1-.7-3-.7-3-.7-3-.7-2.4-.6-1.4-.7-1.2-.9-.9-1.1q-.4-.6-.6-1.4l-.3-1.6-.1-2.4v-3l-.1-3.2-.1-3-.1-3.2-.1-3-.1-3.2-.2-3v-3.2l-.1-3.1V92l.2-3V73.7l-.1-3-.1-3-.1-3-.1-3-.1-3.3v-1.8"/><path fill="none" stroke="url(#a)" stroke-linecap="round" stroke-linejoin="round" stroke-opacity=".8" stroke-width="1.3" d="m13.2 62.7.2-3 .2-.8q0-.3.3-.6l.4-.3q.3-.2.7-.2.3-.1.8 0l1.9.3 2.9.6 2.9.6 2.9.6 3 .5 3 .5 3.2.5 3.2.4 3.1.4 3 .5 3 .5 3 .6 2.8.7 2.8.7 2.9.7 2.8.8 3 .8 3 .7 2.9.7 3 .6 2.8.6 2.8.5 2.9.5 2.8.5 2.8.5 3 .5 3 .5 3 .6 3.2.5 3.1.6 3.1.6 3.1.5 3 .5 3 .6 2.8.5 3 .6 2.9.6 3 .7 3 .7 3 .8 2.9.7 3 .8 2.8.7 2.7.6 2.8.6 2.8.5 2.8.4 2.9.5q1.5.1 1.5 1.6v2.9l.2 3 .1 2.9v3l.1 3.1v15.5l.2 3.2v3l.1 3.1v6.3l-.2 3.1-.2 3.2q-.2 1.5-.2 3.1l-.2 3.1-.2 3v20.5l-.1 2q0 .7-.2 1.2l-.5.8q-.3.4-.7.6l-1 .3h-1q-.7 0-2-.3l-3-.6-2.7-.5-2.8-.5-2.8-.6-2.8-.6-3-.7-3-.7-3.1-.7-3.1-.7-3.1-.8-3-.7-3-.6-3-.7-3-.7-3-.7-3-.8-3-.8-3-.8-3.1-.8-3-.8-3-.8-2.9-.7-2.7-.6-2.8-.6-2.8-.5-2.8-.5-2.9-.4-3-.6-3-.6-3-.6-3-.7-3-.8-3-.8-2.9-.9-2.9-.8-3-.8-3-.7-3-.7-3.2-.7-3.2-.7-3-.7-3.1-.7-3-.7-2.8-.7-2.2-.6-1.4-.7q-.6-.3-1-.8l-.9-1.1-.5-1.3-.3-1.6v-5.3l-.1-2.9v-2.9l-.1-3v-18.9l-.2-3.2-.3-3.3-.2-3.2-.3-3-.1-3.1-.1-3V67.8l-.2-3v-7.2"/><path fill="none" stroke="url(#a)" stroke-linecap="round" stroke-linejoin="round" stroke-opacity=".7" stroke-width=".7" d="m9.6 58.6 6-2.2q2.3-.8 3.7-1.5l2.8-1.3 2.8-1.3 2.8-1.4 2.8-1.4 2.9-1.5 2.9-1.5 3-1.5 3-1.5 2.9-1.4 3-1.4 2.8-1.3 2.7-1.2 2.7-1.2 2.6-1 2.5-1.1 2.6-1.1 2.6-1.1 2.7-1.2 2.8-1.2L75 29l2.9-1.4 2.8-1.4 2.8-1.4 2.8-1.4 2.8-1.5 2.7-1.4 2.7-1.4 2.8-1.3 2.9-1.3 2.9-1.3 3-1.4 3-1.3 3.4-1.5 1.8-.9"/><path fill="none" stroke="url(#a)" stroke-linecap="round" stroke-linejoin="round" stroke-opacity=".7" stroke-width=".7" d="m11.2 57.8 4.5-2 3.5-1.4 2.6-1.3 2.7-1.2 2.7-1.2 2.8-1.2 2.8-1.2 2.8-1.2 3-1.2 2.8-1.3 3-1.2 2.9-1.4 2.9-1.3 2.8-1.4 3-1.3 2.8-1.4 2.8-1.5 2.8-1.4L67 32l2.8-1.4 2.8-1.4 2.8-1.4 3-1.4 2.8-1.3 3-1.3 2.8-1.3 2.9-1.2 2.8-1.2 2.8-1.2 2.7-1.2 2.7-1.3 2.7-1.2 2.6-1.2 2.7-1.3 2.4-1.2 1.2-.6"/><path fill="none" stroke="url(#a)" stroke-linecap="round" stroke-linejoin="round" stroke-opacity=".7" stroke-width="1.1" d="m10.8 57.7 5-2 3.6-1.6 2.8-1.3 2.8-1.3 2.8-1.3 2.8-1.3 2.7-1.2 2.8-1.3 2.7-1.2 2.7-1.2 2.7-1.2 2.8-1.2 2.7-1.2 2.7-1.3 2.8-1.2 2.8-1.2 2.8-1.3 2.9-1.2 2.8-1.3 2.9-1.3 2.9-1.3 2.9-1.4 3-1.3 2.8-1.4 3-1.4 2.8-1.4 2.9-1.4 2.8-1.4 2.8-1.4 2.9-1.4 2.8-1.4 2.7-1.3 2.8-1.4 2.8-1.4L112 11l1.3-.6"/><path fill="none" stroke="url(#a)" stroke-linecap="round" stroke-linejoin="round" stroke-opacity=".9" stroke-width="1.4" d="m106 10.8 5.5.9 3 .6 3.2.7 3 .7 3 .8 3 .7 3 .8 3 .7 3 .7 3.2.6 3.1.6 3.2.5 3.2.5 3.1.6 3 .6 3 .5 3 .6 2.8.6 2.8.6 2.8.5 3 .5 2.9.5 3 .4 3 .5 3 .5 3 .5 3 .6 2.9.6 2.9.8 2.9.8 3 .8 3 .8 3.2.7 3.2.7 3.2.7 3.2.6 3.2.5 3 .4 3 .5 3 .4 2.8.5q1.5.2 2.4.5 1 .2 1.8.6l1.4 1q.6.6 1 1.3l.8 1.6q.3.9.4 2l.2 2.5v12l-.2 3-.2 3v9.3l.2 3.1.2 3.2.2 3.2.3 3.1.1 3.2.2 3v11.6l.2 2.9v2.8l.2 2.8.1 3v9.1l-.1 3.1-.2 3.2q0 1.6-.2 2.4 0 .7-.3 1.4l-.5 1.4-.8 1.2-1 1-1.3.8-2.3 1.4-1.7 1"/><path fill="none" stroke="url(#a)" stroke-linecap="round" stroke-linejoin="round" stroke-opacity=".8" stroke-width="1.1" d="m107 11.8 5.3 1 3 .6 3 .5 3 .6 2.9.5 2.9.5 2.8.6 2.8.5 2.8.6 2.8.6 3 .6 2.8.5 3 .6 3 .6 3.2.5 3.1.5 3.2.5 3.1.5 3.2.5 3 .5 3.2.4 3 .6 3 .5 3 .6 3 .6 3 .7 3 .7 3 .8 3.2.7 3 .8 3.2.8 3 .8 3.2.7 3 .7 3 .7 3 .6 2.8.5 2.9.5 2.8.5 2.8.4 2.8.5 2.3.4 1.7.6q.8.4 1.4 1t1 1.2.8 1.6.4 1.8l.1 2.5.1 3 .2 3v3l.2 3v3l.2 3.1v12.1l.1 3v3l.2 3q0 1.6.2 3.1l.2 3q0 1.6.2 3.1l.2 3.1.2 3.2.2 3.1.1 3.2.1 3.2v6.2l-.1 3.1-.1 3.1-.2 3v3l-.2 2.9v2.2l-.3 1.3-.5 1.3-.7 1-1 .9-1.2.7-2.3 1.2-1.6.7"/><path fill="none" stroke="url(#a)" stroke-linecap="round" stroke-linejoin="round" stroke-opacity=".7" stroke-width=".8" d="m109.5 11.4 2.5.5 3 .6 2.8.6 3 .6 2.9.7 2.8.6 3 .7 2.9.7 3 .6 2.9.7 3 .7 3 .7 3 .7 3 .7 3.2.6 3 .7 3.2.6 3.1.6 3.1.6 3.1.5 3 .6 3.1.5 3 .5 3.1.5 3 .4 3 .5 3 .5 3 .5 3 .5 3 .5 3 .5 3 .6 3 .5 3 .6 3.1.6 3 .6 3.1.6 3 .7 3.1.6 3 .6 3 .7 2.5.6q1 .3 1.8.8t1.4 1 1 1.3.7 1.7.4 1.9v5.5l-.2 3.1v6l-.1 3.1V76l.1 3 .1 3.1.1 3.1.1 3 .1 3.2.1 3 .1 3 .1 3.2v3l.1 3v3l.1 3v6l.1 3v2.8l.2 3v5.1l-.1 1.3-.5 1.3q-.2.6-.6 1-.4.6-1 1l-1.1.8-1.1.6-.4.2"/><path fill="none" stroke="url(#a)" stroke-linecap="round" stroke-linejoin="round" stroke-opacity=".8" stroke-width=".9" d="m155.3 86.9 4.4-2.5 2.8-1.5 2.8-1.5 2.7-1.5 2.7-1.6 2.6-1.5 2.6-1.5 2.5-1.6 2.6-1.6 2.5-1.5 2.6-1.6 2.5-1.6 2.6-1.5 2.6-1.6 2.6-1.5 2.6-1.5 2.6-1.5 2.7-1.5 2.6-1.5 2.7-1.5 2.6-1.4 2.5-1.5 2.6-1.5 2.4-1.5 2.5-1.5 2.5-1.6 2.4-1.5 2.4-1.7 2.4-1.6 2.6-1.8 1.4-1"/><path fill="none" stroke="url(#a)" stroke-linecap="round" stroke-linejoin="round" stroke-opacity=".8" stroke-width=".8" d="m156 86.6 3.6-2.4 2.4-1.5 2.4-1.6 2.4-1.5 2.4-1.5 2.4-1.4 2.4-1.4 2.5-1.4 2.6-1.4 2.6-1.4 2.6-1.3 2.7-1.4 2.8-1.4 2.8-1.5 2.8-1.4 2.8-1.5L201 61l2.8-1.6 2.8-1.7 2.7-1.7 2.7-1.7 2.7-1.8 2.6-1.8 2.6-1.8 2.6-1.8 2.6-1.8 2.6-1.8 2.6-1.8L233 40q1.3-1 2.6-1.7l1.3-.8"/><path fill="none" stroke="url(#a)" stroke-linecap="round" stroke-linejoin="round" stroke-opacity=".7" stroke-width="1.1" d="m29 84 .2-4.3q0-1 .3-1.6t.6-1.2 1-.9 1.2-.4 1.6 0q.9 0 2.3.3l3 .5 2.9.6 3 .5 3 .5 3 .5 3.1.6 3.2.5 3.1.4 3.2.5 3 .4 3.2.5 3 .4 3 .5 3 .5 3 .5 3 .5 3 .6 3 .6 3 .7 3.1.6 3 .7 3 .7 3.1.6 3 .7 3 .6 3 .5 3 .6 2.9.5 2.8.5 3 .4 2.8.5 3 .4 3 .5 3 .5 2.4.4 1.9.7q.8.4 1.5 1t1 1.3q.6.7.9 1.5t.4 2l.1 2.5.1 3v3.2l.1 3v18.5l.1 3.1.1 3.1v3.2l.2 3.1v9q-.1 1-.4 1.8l-.7 1.4q-.5.6-1.2 1-.6.3-1.4.4-.9.2-1.9 0-1 0-2.6-.3l-3-.5-3.2-.6-3.1-.7-3-.6-3.1-.7-3-.7-3-.7-3-.8-3-.7-2.9-.7-3-.7-3-.7-3-.6-3-.6-3-.6-3-.5-3-.6-3-.5-2.9-.6-2.9-.5-2.8-.6-3-.5-2.8-.6-2.9-.6-2.9-.6-3-.6-2.9-.6-3-.6-3-.5-3.2-.6-3-.6-3.1-.5-3.1-.6-3-.6-2.5-.5-1.6-.7q-.8-.4-1.3-1t-1-1.1l-.7-1.5-.4-1.8v-2.5l-.1-3v-3.2l-.2-3v-3.2l-.2-3.1-.1-3-.1-3.2-.1-3v-3l-.1-3v-5.8l.1-3 .1-2.8.1-2.9v-3l.1-1.7"/><path fill="none" stroke="url(#a)" stroke-linecap="round" stroke-linejoin="round" stroke-opacity=".8" stroke-width="1.4" d="m28.5 83.3.1-4.4.3-1.6q.3-.7.7-1.1t1-.8T32 75h1.7l2.6.6 3.2.7 3.2.7 3.2.6 3 .6 3 .5 3 .5 3 .5 3 .5 3 .5 3.1.6 3 .5 3 .5 3 .5 2.8.4 2.7.5 2.8.3 3 .4 2.9.4 3 .5 3.2.6 3.2.7 3.1.7 3.1.8 3 .8 3 .7 3 .6 3.1.6 3.1.5 3.2.4 3.2.4 3.1.3 3 .4 3 .5 2.8.5q1.4.2 2.3.5 1 .3 1.7.7t1.3 1 1 1.3.6 1.6.3 1.9l.1 2.5v3l.1 3.1v19.2l.1 3.3.2 3.2.2 3 .3 3.1v3l.1 2.8v2.9l-.3 2.3q-.1 1-.5 1.7-.3.7-.8 1.2t-1.1.9-1.5.4h-1.9l-2.5-.4-3-.5-3-.5-3-.5-3-.5-3.1-.5-3.2-.6-3-.6-3.2-.6-3-.5-2.8-.6-2.8-.5-2.7-.6-2.8-.5-2.9-.6-2.9-.6-3-.7-3-.8-3.1-.8-3-.8-3-.8-3-.7-3-.7-3-.5-3-.5-3.2-.4-3.2-.4-3.2-.4-3.1-.4-3-.6q-1.6-.2-3-.6l-2.9-.6-2.8-.7-2.8-.7-2.9-.6-2.3-.7q-.9-.2-1.6-.7l-1.4-.9-1-1.2q-.4-.7-.6-1.5-.3-.8-.4-1.7l-.1-2.5v-6.1l.2-3.1v-6.2l-.1-3-.2-3-.3-3-.3-2.8-.2-2.9-.2-2.7V77.3"/><path fill="none" stroke="url(#a)" stroke-linecap="round" stroke-linejoin="round" stroke-opacity=".7" stroke-width="1.4" d="m29.2 81.6.2-2q0-.9.3-1.6t.6-1.2 1-.8 1.3-.4h1.7q.9 0 2.4.3l3 .5 2.9.6 2.9.5 2.8.6 3 .6 2.8.5 3 .5 3 .6 3.1.4 3.1.5 3.2.4 3.2.4 3 .4 3.2.4 3 .5 3 .5 3 .5 3 .7 3 .6 3 .7 3.1.7 3.1.7 3.1.6 3 .7 3 .5 3 .6 3 .5 2.8.5 2.8.4 2.9.5 2.9.5 3 .4 3 .5 3 .5 2.6.6q1 .2 1.8.7t1.5 1 1.1 1.2.8 1.6.4 1.9l.1 2.5v15.3l.2 3v3.2l.2 3.2.1 3.2.1 3.3v6.4l-.1 3.2-.2 3.2-.1 3q0 1.6-.2 2.6l-.5 1.7q-.2.8-.7 1.3t-1.1.8-1.5.4l-1.8-.1-2.5-.5-3-.8-3-.7-2.9-.7-3-.7-3-.6-3-.6-3.1-.5-3-.6-3-.6-3-.5-2.9-.6-2.8-.6-2.8-.6-2.9-.6-2.8-.6-3-.5-3-.6-3-.5-3-.5-3-.6-3.2-.5-3-.5-3-.6-3-.6-3-.7-3-.7-3-.7-3-.8-3.1-.8-3.1-.7-3.2-.7-3-.7-3.1-.6-3-.6-2.4-.5q-.9-.2-1.6-.6l-1.3-.9-1-1.1-.5-1.4-.3-1.7V127l.1-2.9.1-3v-8.9l-.1-3-.1-3v-3l-.1-3V88l-.1-3-.2-3v-2.7"/><path fill="none" stroke="url(#a)" stroke-linecap="round" stroke-linejoin="round" stroke-opacity=".7" stroke-width="1.3" d="M28.8 76.3V84l-.2 3q0 1.6-.2 3l-.2 3.1-.3 3-.3 3-.3 3-.2 3-.1 3.1v3q-.1 1.6 0 3.2v6.1l.1 3.1.1 3v7.5"/><path fill="none" stroke="url(#a)" stroke-linecap="round" stroke-linejoin="round" stroke-opacity=".8" stroke-width="1.8" d="M27.6 76.2q0 1.7.2 3.3l.1 3.1.1 3.2v22.1l.2 3.1.1 3.2.2 3.2v9.6l-.2 3.3-.2 2.6v.9"/><path fill="none" stroke="url(#a)" stroke-linecap="round" stroke-linejoin="round" stroke-opacity=".6" stroke-width="1.3" d="M28.1 77.3v16.1l.2 3 .2 2.8v5.8l-.2 3-.3 3-.4 3-.4 3.1-.2 3.1-.1 3.1v3l.1 3.1.1 2.2v.5"/><path fill="none" stroke="url(#a)" stroke-linecap="round" stroke-linejoin="round" stroke-opacity=".8" stroke-width="2.1" d="M148.2 96.4v8.1l-.1 3.2-.2 3.3-.2 3.3-.1 3.4-.2 3.3v3.3l.1 3.2.2 3 .3 3 .2 3 .2 2.8v8.8l-.2 3v5.3"/><path fill="none" stroke="url(#a)" stroke-linecap="round" stroke-linejoin="round" stroke-opacity=".6" stroke-width="1.5" d="M148 99.2v12l-.2 3.1v3l-.1 3.2-.1 3v3.1l-.1 3v9.3l.2 3.1v3l.2 3.1.1 3v2.3l.1.8"/><path fill="none" stroke="url(#a)" stroke-linecap="round" stroke-linejoin="round" stroke-opacity=".8" stroke-width="1.5" d="M147.9 97.7v3.4l-.1 3.1v3.2l-.1 3.1v3.2l-.1 3.2v6.5l.2 3.2.1 3.2.2 3.1.2 3.2.3 3 .1 3.2.2 3.1v3.1l.1 3.1v3.5"/><path fill="none" stroke="url(#a)" stroke-linecap="round" stroke-linejoin="round" stroke-opacity=".8" stroke-width="1.2" d="M145.5 97.8v9.5l.1 3.3.1 3.2.2 3.2.1 3.2.2 3.1.2 3q0 1.6.2 3.1v3l.2 3v8.7l-.2 3-.1 2.9-.2 2.9-.2 2v.6"/><path fill="none" stroke="url(#a)" stroke-linecap="round" stroke-linejoin="round" stroke-opacity=".8" stroke-width=".8" d="M145.8 95.8V128l.1 3v3.1l.2 3v6.2l.1 3.2v6.3l-.1 3.2-.1 1.5"/><path fill="none" stroke="url(#a)" stroke-linecap="round" stroke-linejoin="round" stroke-opacity=".7" stroke-width="1.2" d="m57.5 108.3-.3 2.3-.8 4-1.1 3.6q-.7 1.7-1.5 3.1t-1.7 2.5-2 2-2 1-2.2.3-2.1-.5-2-1.4q-1-.8-1.9-2t-1.5-2.8-1.2-3.2-.6-3.7q-.2-2-.1-4 0-2 .4-4.1.3-2.1.9-4.1.5-2 1.2-3.8t1.6-3.2 1.8-2.6 2-2 2-1 2.2-.2 2.1.7 2 1.5q1 1 1.7 2.3.9 1.3 1.5 2.9t1.1 3.4.7 3.8v4q0 2-.4 4l-1 3.8-.6 2v.1"/><path fill="none" stroke="url(#a)" stroke-linecap="round" stroke-linejoin="round" stroke-opacity=".9" d="m57.9 108.8-.2 2.2q-.2 1.9-.7 3.7-.4 1.7-1 3.3t-1.6 3-1.9 2.3l-2 1.8q-1.1.7-2.3 1-1.1.2-2.2.1t-2.3-.6q-1-.5-2-1.4-1-1-1.9-2.2t-1.5-2.7T37 116t-.7-3.5l-.2-3.7q0-2 .4-3.8l.8-3.6q.5-1.7 1.3-3.3l1.5-3q.9-1.3 1.9-2.4l2-1.8q1-.7 2.1-1 1-.3 2.1-.3 1 .1 2 .6t2 1.4 1.6 2 1.3 2.7 1 3.2.6 3.6l.3 3.8q0 2-.2 3.8l-.5 3.8-.4 2"/><path fill="none" stroke="url(#a)" stroke-linecap="round" stroke-linejoin="round" stroke-opacity=".6" stroke-width=".9" d="m57.2 108-.3 2.4-.8 4-1.1 3.5-1.5 3.2q-.8 1.5-1.8 2.6t-1.9 1.8-2 1.1q-1 .4-2 .3-1 0-2-.6T42 125q-.9-.9-1.6-2-.7-1.3-1.3-2.9l-1-3.2-.6-3.7-.2-3.8.1-3.9q.2-2 .6-3.7t1-3.5q.6-1.6 1.4-3 .8-1.5 1.7-2.6l2-1.8q1-.8 2.1-1.1t2.2-.4 2 .5 2 1.3q1 .9 1.7 2 .8 1.2 1.3 2.7.6 1.4 1 3l.4 3.6q.2 1.9.1 3.9 0 2-.3 4l-.7 3.8-.5 2.1v.2"/><path fill="none" stroke="url(#a)" stroke-linecap="round" stroke-linejoin="round" stroke-opacity=".7" stroke-width="1.1" d="m131.6 124.9-.5 2.4q-.4 2.1-1.2 4.2t-1.7 4.1l-1.9 3.8q-1 1.8-2 3.2-1.1 1.5-2.2 2.5t-2.3 1.6-2.4.5-2.3-.4-2.2-1.5-2-2.4-1.6-3.2q-.8-1.8-1.2-4-.5-2.2-.7-4.5-.2-2.4 0-4.8t.6-4.7 1-4.5l1.2-4.2q.7-2 1.5-3.7t1.7-3 2-2.3 2.2-1.4 2.4-.4 2.4.6 2.3 1.6 2 2.6 1.8 3.4q.8 2 1.3 4.2t.6 4.6l.2 4.8q0 2.4-.3 4.7-.2 2.2-.6 4.3l-.3 2.1v.2"/><path fill="none" stroke="url(#a)" stroke-linecap="round" stroke-linejoin="round" stroke-opacity=".6" stroke-width="1.6" d="m130.9 125-.2 2.6q-.2 2.3-.6 4.5t-1 4.1-1.5 3.6-2 3-2.2 2q-1.2 1-2.5 1.3t-2.6.4q-1.3-.1-2.5-.6-1.3-.6-2.5-1.6t-2.1-2.3l-1.9-3q-.8-1.7-1.3-3.7-.6-1.9-.8-4t-.3-4.3.3-4.6l.8-4.5q.5-2.2 1.2-4.3t1.5-3.8 2-3.2 2.2-2.4 2.5-1.4 2.5-.5 2.6.6 2.5 1.5 2.2 2.5 1.9 3.2 1.4 4 .9 4.3.2 4.7-.4 4.7-1 4.5l-.5 2.4v.1"/><path fill="none" stroke="url(#a)" stroke-linecap="round" stroke-linejoin="round" stroke-opacity=".7" stroke-width="1.8" d="m130.4 124.7-.4 2.3-1 4.3-1.2 4.2-1.4 3.8q-.8 1.8-1.8 3.3t-2 2.4-2.3 1.5-2.4.5-2.4-.5-2.3-1.4-2-2.4-1.7-3.2-1.1-3.9q-.5-2-.6-4.3v-4.5l.5-4.6q.3-2.3.8-4.5l1-4.2q.5-2 1.2-3.7t1.6-3.2q1-1.5 2-2.5 1.1-1 2.3-1.5t2.4-.5 2.5.4 2.4 1.5 2.1 2.4 1.8 3.2 1.3 4.1.8 4.7l.2 5q0 2.6-.3 5-.2 2.5-.6 4.8l-.4 2.3"/><path fill="none" stroke="url(#a)" stroke-linecap="round" stroke-linejoin="round" stroke-opacity=".9" stroke-width="1.8" d="m130.8 124.3-.4 2.8q-.3 2.5-.8 4.8t-1.4 4.5-1.6 4-2 3.2-2.1 2.3-2.3 1.4-2.3.4-2.2-.6-2.1-1.6-1.8-2.5-1.5-3.3-1.2-4-.8-4.5-.4-4.7v-4.8q.1-2.3.5-4.5t1-4.2 1.6-3.7 2-3 2.3-2.2 2.5-1.3 2.5-.3 2.5.6 2.2 1.5l2 2.3q.9 1.4 1.5 3.2.7 1.7 1.1 3.7t.6 4.3v4.5q0 2.4-.3 4.8l-.7 4.7-.5 2.5v.2"/><path fill="none" stroke="url(#a)" stroke-linecap="round" stroke-linejoin="round" stroke-opacity=".7" stroke-width="1.5" d="M70.6 117.4v1.6l.1 1v1.4l.1 1.4.1 1.4q0 .8.2 1.4l.3 1.3.3 1.2.4 1.2.6 1.2.5 1.1.7 1.1.6 1 .7 1 .7.6.8.5.7.3.8.1h1.6l.8-.3.9-.3.8-.4.8-.6.8-.7.8-1q.5-.4.9-1l.8-1 .8-1.1.8-1 .7-1 .6-1 .5-.8.5-1 .5-.8.4-.9.3-.7.3-.7.3-.5.2-.4v-.1"/><path fill="none" stroke="url(#a)" stroke-linecap="round" stroke-linejoin="round" stroke-opacity=".6" stroke-width="1.3" d="M70.9 117v1.6l.1 1.1.1 1.3.1 1.5.1 1.4.2 1.4.3 1.4.4 1.2.4 1.2.5 1.2.6 1.2.6 1 .7 1.1.6.9.7.7.7.5.8.3.7.1h1.7l.8-.2.8-.4.8-.4.8-.5.8-.7.8-.9.9-1 .8-1 .8-1.1.7-1 .7-1 .6-.9.5-.8.5-.9.4-.8.4-.8.3-.7.3-.7.2-.5.2-.3v-.2"/><path fill="none" stroke="url(#a)" stroke-linecap="round" stroke-linejoin="round" stroke-opacity=".8" stroke-width="1.2" d="M71 117.3v2.5l.1 1.4v1.4l.2 1.4.2 1.4.3 1.2.4 1.2.5 1.2.5 1.1.7 1.2.6 1 .7 1 .8 1 .7.6.7.5.7.3.8.2h.8l.8-.1.8-.2.8-.3.8-.5.7-.5.8-.7.7-.8.8-1 .7-1 .6-1 .7-1 .5-.9.5-.8.5-.8.4-.9.4-.8.3-.7.3-.7.2-.7.3-.5v-.2h.1"/></svg>